<svg xmlns="http://www.w3.org/2000/svg" width="20" height="20" viewBox="0 0 20 20" fill="none">
  <path fill="currentColor" d="M11.5 2.5c1.5 0 2.8 1.2 2.8 2.8v0.7c0.4-0.2 0.9-0.3 1.4-0.3 1.5 0 2.8 1.2 2.8 2.8v5c0 3.6-2.9 6.5-6.5 6.5H9.5c-2.2 0-4.2-1.1-5.4-2.9l-2.6-4.3c-0.8-1.3-0.4-3 0.9-3.8 1.3-0.8 3-0.4 3.8 0.9l0.3 0.5V5.3c0-1.5 1.2-2.8 2.8-2.8h0.2c1 0 1.9 0.5 2.4 1.3 0.5-0.8 1.4-1.3 2.4-1.3h-0.8zm-3 1.5c-0.7 0-1.3 0.6-1.3 1.3v6.2c0 0.6-0.5 1.1-1.1 1.1-0.4 0-0.7-0.2-0.9-0.5l-1.4-2.3c-0.4-0.6-1.2-0.8-1.8-0.4-0.6 0.4-0.8 1.2-0.4 1.8l2.6 4.3c0.9 1.4 2.4 2.2 4.1 2.2h2.5c2.7 0 5-2.2 5-5v-5c0-0.7-0.6-1.3-1.3-1.3s-1.3 0.6-1.3 1.3v2c0 0.4-0.3 0.8-0.8 0.8s-0.8-0.3-0.8-0.8V5.3c0-0.7-0.6-1.3-1.3-1.3s-1.3 0.6-1.3 1.3v3.2c0 0.4-0.3 0.8-0.8 0.8s-0.8-0.3-0.8-0.8V5.3c0-0.7-0.6-1.3-1.3-1.3z"/>
</svg>
